<?xml version="1.0" standalone="no"?>
<!DOCTYPE svg PUBLIC "-//W3C//DTD SVG 20010904//EN"
"http://www.w3.org/TR/2001/REC-SVG-20010904/DTD/svg10.dtd">
<svg version="1.0" xmlns="http://www.w3.org/2000/svg"
width="1024.000000pt" height="1024.000000pt" viewBox="0 0 1024.000000 1024.000000"
preserveAspectRatio="xMidYMid meet">
<metadata>
Created by potrace 1.14, written by Peter Selinger 2001-2017
</metadata>
<g transform="translate(0.000000,1024.000000) scale(0.100000,-0.100000)"
fill="#000000" stroke="none">
<path d="M2925 6785 c-231 -39 -406 -138 -500 -284 -89 -139 -142 -268 -176
-434 -20 -99 -21 -129 -20 -902 0 -516 4 -824 10 -866 19 -119 60 -241 123
-369 52 -107 72 -135 132 -195 84 -83 155 -127 268 -166 132 -45 252 -62 438
-62 418 0 655 113 783 375 97 198 117 301 117 614 l0 234 -322 -2 -323 -3 -6
-260 c-5 -232 -8 -267 -27 -327 -40 -120 -105 -168 -228 -168 -92 0 -137 14
-185 57 -50 45 -65 74 -90 171 -19 74 -20 113 -19 957 0 841 1 884 19 957 31
121 66 170 143 202 44 19 164 21 223 5 51 -14 126 -90 142 -144 21 -69 33
-213 33 -392 l0 -173 325 0 325 0 0 199 c0 110 -5 235 -11 277 -26 192 -131
417 -246 526 -90 86 -233 146 -413 174 -118 17 -406 17 -515 -1z"/>
<path d="M4940 6688 c-6 -29 -148 -732 -315 -1563 -168 -830 -307 -1518 -309
-1527 -4 -17 16 -18 313 -18 l317 0 58 323 c32 177 60 332 63 345 l5 22 264 0
c178 0 264 -3 264 -11 0 -12 97 -621 106 -661 l6 -28 309 0 c170 0 309 3 309
8 0 4 -142 716 -315 1582 -173 866 -315 1576 -315 1577 0 2 -168 3 -374 3
l-374 0 -12 -52z m490 -1398 l96 -615 -194 -3 c-107 -1 -196 -1 -198 1 -2 1
40 285 94 630 53 344 99 621 101 614 2 -6 48 -288 101 -627z"/>
<path d="M6270 6500 l0 -240 250 0 250 0 0 -1345 0 -1345 340 0 340 0 0 1345
0 1345 250 0 250 0 0 240 0 240 -840 0 -840 0 0 -240z"/>
</g>
</svg>
